<svg xmlns="http://www.w3.org/2000/svg" version="1.1" xmlns:xlink="http://www.w3.org/1999/xlink" xmlns:svgjs="http://svgjs.com/svgjs" width="1920" height="700" preserveAspectRatio="none" viewBox="0 0 1920 700">
    <g mask="url(&quot;#SvgjsMask1166&quot;)" fill="none">
        <path d="M82.19498738122623-46.0275544596319L-55.78354436461289 150.62705618647928 153.06605366272453 172.5780334726865z" fill="rgba(101, 122, 133, 0.4)" class="triangle-float2"></path>
        <path d="M141.786,282.808C199.253,284.531,260.91,276.73,293.602,229.437C330.498,176.063,337.207,103.877,304.019,48.122C271.455,-6.584,205.385,-28.488,141.786,-25.605C83.309,-22.954,31.593,10.583,3.174,61.758C-24.411,111.431,-25.225,172.646,4.96,220.783C33.473,266.254,88.139,281.199,141.786,282.808" fill="rgba(101, 122, 133, 0.4)" class="triangle-float3"></path>
        <path d="M185.49410759380277 20.502525316941657L86.49915822768611-78.492424049175-12.495791138430548 119.49747468305831z" fill="rgba(101, 122, 133, 0.4)" class="triangle-float1"></path>
        <path d="M1808.1904058863818-38.91771642467351L1774.5299588662215 198.94376725335724 1970.5818484306337 123.68649784884408z" fill="rgba(101, 122, 133, 0.4)" class="triangle-float2"></path>
        <path d="M1936.671,328.874C2002.606,330.911,2070.258,309.906,2105.521,254.156C2143.062,194.805,2144.878,117.528,2108.253,57.608C2073.003,-0.062,2004.261,-22.07,1936.671,-22.087C1869.046,-22.104,1798.409,-1.239,1764.941,57.523C1731.735,115.825,1749.095,187.557,1784.976,244.252C1818.163,296.691,1874.643,326.957,1936.671,328.874" fill="rgba(101, 122, 133, 0.4)" class="triangle-float3"></path>
        <path d="M1833.298,127.976C1861.002,127.888,1887.96,116.826,1902.687,93.36C1918.373,68.365,1921.221,36.606,1906.795,10.864C1892.068,-15.415,1863.41,-29.599,1833.298,-30.462C1801.454,-31.375,1767.782,-21.311,1752.12,6.43C1736.652,33.828,1745.666,67.64,1763.14,93.804C1778.624,116.989,1805.418,128.065,1833.298,127.976" fill="rgba(101, 122, 133, 0.4)" class="triangle-float3"></path>
        <path d="M186.38247253031284 638.1382552701479L-14.967722754102283 507.1069232535687-29.616582240368615 716.5953738081317z" fill="rgba(101, 122, 133, 0.4)" class="triangle-float3"></path>
        <path d="M-28.747852176607168 707.702963774851L92.49570435321425 777.702963774851 136.87392608830356 560.8376289801189z" fill="rgba(101, 122, 133, 0.4)" class="triangle-float2"></path>
        <path d="M114.293,827.056C163.572,825.576,192.95,776.483,214.429,732.107C232.653,694.456,235.218,652.659,216.91,615.048C195.706,571.488,162.65,529.353,114.293,526.399C61.795,523.192,11.804,554.439,-12.609,601.026C-35.548,644.8,-21.024,695.358,3.17,738.451C28.028,782.726,63.54,828.58,114.293,827.056" fill="rgba(101, 122, 133, 0.4)" class="triangle-float2"></path>
        <path d="M1924.615,853.796C1977.504,854.628,2023.826,822.936,2051.842,778.069C2081.859,729.998,2096.315,670.854,2070.281,620.515C2042.313,566.435,1985.46,529.899,1924.615,532.064C1866.797,534.121,1821.637,578.483,1795.863,630.28C1772.923,676.38,1778.44,729.552,1804.142,774.171C1829.894,818.876,1873.029,852.984,1924.615,853.796" fill="rgba(101, 122, 133, 0.4)" class="triangle-float3"></path>
        <path d="M1685.008417723139 630L1833.500841772314 778.4924240491749 1981.9932658214889 630 1833.500841772314 481.50757595082496z" fill="rgba(101, 122, 133, 0.4)" class="triangle-float2"></path>
        <path d="M1855.544,750.889C1897.742,751.843,1941.335,733.72,1960.126,695.925C1977.545,660.89,1956.882,622.18,1935.98,589.105C1916.978,559.037,1891.038,532.738,1855.544,530.436C1815.908,527.866,1775.213,543.308,1754.756,577.354C1733.762,612.294,1738.372,656.127,1758.844,691.375C1779.218,726.454,1814.988,749.972,1855.544,750.889" fill="rgba(101, 122, 133, 0.4)" class="triangle-float2"></path>
    </g>
    <defs>
        <mask id="SvgjsMask1166">
            <rect width="1920" height="700" fill="#ffffff"></rect>
        </mask>
        <style>
            @keyframes float1 {
                0%{transform: translate(0, 0)}
                50%{transform: translate(-10px, 0)}
                100%{transform: translate(0, 0)}
            }

            .triangle-float1 {
                animation: float1 5s infinite;
            }

            @keyframes float2 {
                0%{transform: translate(0, 0)}
                50%{transform: translate(-5px, -5px)}
                100%{transform: translate(0, 0)}
            }

            .triangle-float2 {
                animation: float2 4s infinite;
            }

            @keyframes float3 {
                0%{transform: translate(0, 0)}
                50%{transform: translate(0, -10px)}
                100%{transform: translate(0, 0)}
            }

            .triangle-float3 {
                animation: float3 6s infinite;
            }
        </style>
    </defs>
</svg>