<svg xmlns="http://www.w3.org/2000/svg" version="1.1" xmlns:xlink="http://www.w3.org/1999/xlink" xmlns:svgjs="http://svgjs.com/svgjs" width="1440" height="560" preserveAspectRatio="none" viewBox="0 0 1440 560">
    <g mask="url(&quot;#SvgjsMask1719&quot;)" fill="none">
        <rect width="1440" height="560" x="0" y="0" fill="url(#SvgjsLinearGradient1720)"></rect>
        <path d="M1464 560L0 560 L0 364.32Q39.47 331.79, 72 371.27Q106.71 285.98, 192 320.68Q233.74 290.42, 264 332.16Q330.02 278.19, 384 344.21Q397.8 286, 456 299.8Q525.48 249.28, 576 318.77Q625.26 296.03, 648 345.3Q655.02 280.32, 720 287.34Q799.61 294.95, 792 374.56Q790.73 301.28, 864 300.01Q917.46 233.47, 984 286.93Q1043.83 274.75, 1056 334.58Q1109.22 267.8, 1176 321.03Q1200.07 273.1, 1248 297.17Q1276.81 253.98, 1320 282.78Q1374.22 265, 1392 319.22Q1447.04 302.26, 1464 357.3z" fill="#182f5d"></path>
        <path d="M1536 560L0 560 L0 400.27Q78.55 358.82, 120 437.38Q156.21 353.59, 240 389.8Q311.45 341.25, 360 412.7Q404.01 384.71, 432 428.72Q473.07 349.79, 552 390.86Q600.27 319.13, 672 367.41Q761.11 336.51, 792 425.62Q807.26 368.88, 864 384.15Q907.42 307.57, 984 350.99Q1074.68 321.68, 1104 412.36Q1154.3 390.65, 1176 440.95Q1192.49 337.44, 1296 353.93Q1361.62 299.55, 1416 365.16Q1488.38 317.54, 1536 389.92z" fill="#25467d"></path>
        <path d="M1488 560L0 560 L0 509.77Q-4.04 433.73, 72 429.69Q139.53 377.22, 192 444.75Q236.55 417.3, 264 461.85Q333.65 411.5, 384 481.16Q427.91 405.07, 504 448.98Q527.09 400.07, 576 423.16Q670.13 397.3, 696 491.43Q744.27 467.7, 768 515.97Q779.25 455.23, 840 466.48Q881.13 387.62, 960 428.75Q1003.37 400.12, 1032 443.48Q1082.82 422.3, 1104 473.12Q1138.09 387.21, 1224 421.3Q1274.91 400.22, 1296 451.13Q1363.53 446.65, 1368 514.18Q1421.89 448.07, 1488 501.97z" fill="#356cb1"></path>
        <path d="M1512 560L0 560 L0 498.16Q42.91 469.07, 72 511.97Q115.59 483.56, 144 527.14Q228.33 491.47, 264 575.81Q291.2 531, 336 558.2Q358.21 508.41, 408 530.62Q427.73 478.35, 480 498.08Q561.52 459.61, 600 541.13Q655.18 524.31, 672 579.48Q691.52 479, 792 498.53Q868.06 454.59, 912 530.64Q982.22 480.86, 1032 551.07Q1047.27 494.34, 1104 509.61Q1132.69 466.31, 1176 495Q1276.79 475.79, 1296 576.58Q1300.18 508.77, 1368 512.95Q1395.26 468.21, 1440 495.47Q1498.46 481.93, 1512 540.4z" fill="white"></path>
    </g>
    <defs>
        <mask id="SvgjsMask1719">
            <rect width="1440" height="560" fill="#ffffff"></rect>
        </mask>

    </defs>
</svg>