<svg xmlns="http://www.w3.org/2000/svg" version="1.1" xmlns:xlink="http://www.w3.org/1999/xlink" xmlns:svgjs="http://svgjs.com/svgjs" width="1920" height="1080" preserveAspectRatio="none" viewBox="0 0 1920 1080">
    <g mask="url(&quot;#SvgjsMask1069&quot;)" fill="none">
        <path d="M1386.2271425814079 991.8989722940432L1666.570516651468 884.2852335280668 1558.9567778854916 603.9418594580068 1278.6134038154314 711.5555982239831z" fill="rgba(47, 117, 153, 0.4)" class="triangle-float3"></path>
        <path d="M259.729,443.04C292.727,443.472,329.656,441.168,347.141,413.18C365.351,384.032,354.929,347.43,338.225,317.393C320.921,286.277,295.332,255.757,259.729,255.992C224.393,256.225,199.779,287.314,183.01,318.419C167.282,347.594,158.821,382.716,176.197,410.94C192.958,438.165,227.761,442.621,259.729,443.04" fill="rgba(47, 117, 153, 0.4)" class="triangle-float1"></path>
        <path d="M1857.853,858.771C1903.83,858.844,1948.372,837.842,1971.279,797.978C1994.111,758.244,1990.799,708.616,1966.442,669.798C1943.532,633.286,1900.914,619.156,1857.853,617.21C1810.108,615.052,1756.157,618.624,1730.819,659.148C1704.454,701.315,1718.351,755.662,1745.051,797.618C1769.663,836.293,1812.011,858.698,1857.853,858.771" fill="rgba(47, 117, 153, 0.4)" class="triangle-float2"></path>
        <path d="M958.036583184123 683.5662045437041L919.2323254842798 515.4864984973284 686.514895264638 657.7327380702809z" fill="rgba(47, 117, 153, 0.4)" class="triangle-float1"></path>
        <path d="M1829.6205253479375 696.3146037639764L1767.6429693763012 784.8277267876163 1931.4014318975792 833.5374992332504z" fill="rgba(47, 117, 153, 0.4)" class="triangle-float2"></path>
        <path d="M318.844,823.224C401.793,825.5,493.897,811.189,535.438,739.355C577.012,667.464,546.061,578.834,500.217,509.589C459.616,448.263,392.39,412.718,318.844,412.201C244.31,411.677,172.442,443.762,133.002,507.008C91.171,574.088,81.853,659.851,121.908,728.006C161.506,795.383,240.722,821.08,318.844,823.224" fill="rgba(47, 117, 153, 0.4)" class="triangle-float2"></path>
        <path d="M12.354,659.992C49.826,662.155,84.307,637.317,101.086,603.742C116.377,573.146,106.626,537.515,87.852,508.924C71.069,483.365,42.907,469.831,12.354,468.612C-20.874,467.286,-57.736,473.647,-74.356,502.45C-90.972,531.245,-76.278,565.305,-60.248,594.43C-43.396,625.048,-22.537,657.978,12.354,659.992" fill="rgba(47, 117, 153, 0.4)" class="triangle-float1"></path>
        <path d="M322.0898119621754 741.2582985966854L317.505053248386 478.59764779739794 54.84440244909848 483.18240651118737 59.42916116288791 745.8430573104749z" fill="rgba(47, 117, 153, 0.4)" class="triangle-float3"></path>
    </g>
    <defs>
        <mask id="SvgjsMask1069">
            <rect width="1920" height="1080" fill="#ffffff"></rect>
        </mask>
        <style>
            @keyframes float1 {
                0%{transform: translate(0, 0)}
                50%{transform: translate(-10px, 0)}
                100%{transform: translate(0, 0)}
            }

            .triangle-float1 {
                animation: float1 5s infinite;
            }

            @keyframes float2 {
                0%{transform: translate(0, 0)}
                50%{transform: translate(-5px, -5px)}
                100%{transform: translate(0, 0)}
            }

            .triangle-float2 {
                animation: float2 4s infinite;
            }

            @keyframes float3 {
                0%{transform: translate(0, 0)}
                50%{transform: translate(0, -10px)}
                100%{transform: translate(0, 0)}
            }

            .triangle-float3 {
                animation: float3 6s infinite;
            }
        </style>
    </defs>
</svg>